<?xml version="1.0" encoding="UTF-8"?>
<!-- Generated by jsxcad -->
<!DOCTYPE svg PUBLIC "-//W3C//DTD SVG 1.1 Tiny//EN" "http://www.w3.org/Graphics/SVG/1.1/DTD/svg11-tiny.dtd">
<svg viewBox="-250 -250 500 500" width="500" height="500" xmlns="http://www.w3.org/2000/svg"><path d="M-7.861204245018478,-28.782329224023115L-17.70550144562424,-27.70334668639897L-17.00876268217355,-26.358040540507425z" style="fill:rgb(127,37,217)"/><path d="M-8.548014615885402,-30.133745567677646L-17.007797588968106,-29.676589952416467L-17.70550144562424,-27.70334668639897zM-8.548014615885402,-30.133745567677646L-9.751138069083982,-31.60566917243037L-17.007797588968106,-29.676589952416467z" style="fill:rgb(87,169,241)"/><path d="M-7.861204245018478,-28.782329224023115L-8.548014615885402,-30.133745567677646L-17.70550144562424,-27.70334668639897z" style="fill:rgb(127,37,217)"/><path d="M-19.670200952859442,-32.783711959536575L-15.949346561714021,-25.093396682512317L-15.745200938326375,-25.196001928135132zM-11.112102303099595,-27.523160172565607L-19.87578794302238,-32.68036031631381L-15.949346561714021,-25.093396682512317zM-15.004371118997438,-35.12786175880511L-15.745200938326375,-25.196001928135132L-11.112102303099595,-27.523160172565607z" style="fill:rgb(164,51,222)"/><path d="M-14.879310313735113,-35.03425935326015L-11.112102303099595,-27.523160172565607L-10.987314445198162,-27.429024102619596z" style="fill:rgb(30,49,155)"/><path d="M-0.6440706396512748,-32.23144453330865L-0.932994399826713,-34.146031309244286L-1.7153304653438135,-37.64048850301076zM-0.6440706396512748,-32.23144453330865L-1.7153304653438135,-37.64048850301076L-2.7300063464297013,-41.107582388756356zM-0.6440706396512748,-32.23144453330865L-2.7300063464297013,-41.107582388756356L-3.9044582176149647,-44.298327747131346z" style="fill:rgb(247,158,158)"/><path d="M-4.840601762466129,-46.307764719587325L-29.76837820497559,-39.5982706383044L-29.93567442544532,-33.969804427782925z" style="fill:rgb(83,212,212)"/><path d="M-25.543223642918026,-25.623232989965366L-0.6440706396512748,-32.23144453330865L-4.86797540019991,-40.682113054764386z" style="fill:rgb(127,37,217)"/><path d="M-0.6440706396512748,-32.23144453330865L-3.9044582176149647,-44.298327747131346L-4.840601762466129,-46.307764719587325z" style="fill:rgb(247,158,158)"/><path d="M-19.670200952859442,-32.783711959536575L-19.87578794302238,-32.68036031631381L-15.949346561714021,-25.093396682512317zM-15.004371118997438,-35.12786175880511L-19.670200952859442,-32.783711959536575L-15.745200938326375,-25.196001928135132z" style="fill:rgb(164,51,222)"/><path d="M-19.99296291709223,-29.41545550872379L-14.758715683703723,-18.93874489936958L-14.555667979141857,-18.943252308196634z" style="fill:rgb(90,32,203)"/><path d="M-11.112102303099595,-27.523160172565607L-15.004371118997438,-35.12786175880511L-19.87578794302238,-32.68036031631381z" style="fill:rgb(164,51,222)"/><path d="M-25.543223642918026,-25.623232989965366L-4.86797540019991,-40.682113054764386L-29.93567442544532,-33.969804427782925z" style="fill:rgb(127,37,217)"/><path d="M-12.282139152099049,-33.386225015375544L-7.047311800073878,-22.71386020428599L-6.920257032450735,-22.875216334870302z" style="fill:rgb(224,99,205)"/><path d="M-15.949346561714021,-25.093396682512317L-19.949650116616922,-28.93282084401497L-16.00819717647768,-21.344428303998072z" style="fill:rgb(247,158,158)"/><path d="M-14.879310313735113,-35.03425935326015L-15.004371118997438,-35.12786175880511L-11.112102303099595,-27.523160172565607zM-12.03778831729603,-32.907267429197574L-11.112102303099595,-27.523160172565607L-8.152044542857038,-25.2899636405381z" style="fill:rgb(30,49,155)"/><path d="M-26.346764825963294,-35.1329412334912L-7.261076902527638,-41.99167657449558L-21.198875317788147,-41.52803291334318z" style="fill:rgb(83,212,212)"/><path d="M-19.94659588537933,-29.09153421316649L-16.00819717647768,-21.344428303998072L-16.00577733278823,-21.503198484503596zM-15.949346561714021,-25.093396682512317L-19.87578794302238,-32.68036031631381L-19.949650116616922,-28.93282084401497z" style="fill:rgb(247,158,158)"/><path d="M-11.42057212924418,-36.084963290265904L-19.961230571412653,-35.39697186931695L-21.2583932558553,-33.45764376590977z" style="fill:rgb(83,212,212)"/><path d="M-12.03778831729603,-32.907267429197574L-15.004371118997438,-35.12786175880511L-11.112102303099595,-27.523160172565607z" style="fill:rgb(30,49,155)"/><path d="M-11.42057212924418,-36.084963290265904L-12.671130064054129,-37.34677289688438L-19.961230571412653,-35.39697186931695zM-19.87578794302238,-32.68036031631381L-21.2583932558553,-33.45764376590977L-22.191566022269413,-32.06256092424323z" style="fill:rgb(83,212,212)"/><path d="M-17.16445656519029,-20.38248176055319L-17.825814207279524,-20.83469511494041L-17.124205760452323,-19.488983187398787zM-17.16445656519029,-20.38248176055319L-17.124205760452323,-19.488983187398787L-16.192516341789606,-18.516829081953237z" style="fill:rgb(23,55,145)"/><path d="M-19.87578794302238,-32.68036031631381L-15.004371118997438,-35.12786175880511L-21.2583932558553,-33.45764376590977z" style="fill:rgb(83,212,212)"/><path d="M-20.145977947043797,-26.105587336944467L-19.74790954901856,-22.22664396228363L-16.192479018908582,-18.51678977293745z" style="fill:rgb(23,55,145)"/><path d="M-15.21133952064672,-29.705598320301792L-9.937137645107185,-19.045800845785635L-9.809232342375205,-19.20807260639651z" style="fill:rgb(224,99,205)"/><path d="M-15.341029238471695,-29.54272382544175L-10.14141189566421,-19.041263925848362L-9.937137645107185,-19.045800845785635z" style="fill:rgb(90,32,203)"/><path d="M-0.6440706396512748,-32.23144453330865L-4.840601762466129,-46.307764719587325L-4.86797540019991,-40.682113054764386z" style="fill:rgb(247,158,158)"/><path d="M-20.145977947043797,-26.105587336944467L-23.7049722006641,-29.80011000694892L-19.74790954901856,-22.22664396228363z" style="fill:rgb(23,55,145)"/><path d="M-4.840601762466129,-46.307764719587325L-29.93567442544532,-33.969804427782925L-4.86797540019991,-40.682113054764386zM-19.916972962976182,-33.26076504799049L-20.122724723295587,-33.15734657827184L-20.125871114997086,-32.999741930616324zM-15.249078035310932,-35.605905284686486L-15.455105556085417,-35.50239656964119L-15.124006626135637,-35.5124149249201z" style="fill:rgb(83,212,212)"/><path d="M-19.04764521613565,-37.087774875526L-18.189168035058945,-35.41966506377659L-12.381682634167298,-35.595423998069215z" style="fill:rgb(90,32,203)"/><path d="M-8.606010547519181,-23.26597726599794L-8.880089287087404,-20.440144458644898L-7.914503984457059,-21.91410275386619z" style="fill:rgb(231,109,199)"/><path d="M-19.99296291709223,-29.41545550872379L-20.197473352588105,-29.40985928870845L-14.758715683703723,-18.93874489936958z" style="fill:rgb(90,32,203)"/><path d="M-9.840902520184255,-22.312579199489544L-17.825814207279524,-20.83469511494041L-17.16445656519029,-20.38248176055319z" style="fill:rgb(87,241,169)"/><path d="M-26.346764825963294,-35.1329412334912L-22.725190825382647,-32.50001196469789L-19.04764521613565,-37.087774875526z" style="fill:rgb(83,212,212)"/><path d="M-9.057909541481306,-33.70085825117573L-8.88012741737708,-20.44008565170449L-5.190457590420009,-26.07233784318464z" style="fill:rgb(231,109,199)"/><path d="M-19.949650116616922,-28.93282084401497L-19.87578794302238,-32.68036031631381L-22.191566022269413,-32.06256092424323z" style="fill:rgb(83,212,212)"/><path d="M-12.282139152099049,-33.386225015375544L-12.410961885289474,-33.224279254256864L-7.047311800073878,-22.71386020428599z" style="fill:rgb(224,99,205)"/><path d="M-16.192516341789606,-18.516829081953237L-9.840902520184255,-22.312579199489544L-17.16445656519029,-20.38248176055319zM-16.192516341789606,-18.516829081953237L-8.880089287087404,-20.440144458644898L-9.840902520184255,-22.312579199489544z" style="fill:rgb(127,37,217)"/><path d="M-22.725190825382647,-32.50001196469789L-18.189168035058945,-35.41966506377659L-19.04764521613565,-37.087774875526z" style="fill:rgb(224,99,205)"/><path d="M-9.840902520184255,-22.312579199489544L-8.606083581012642,-23.265866128076635L-17.825814207279524,-20.83469511494041z" style="fill:rgb(87,241,169)"/><path d="M-19.94659588537933,-29.09153421316649L-19.949650116616922,-28.93282084401497L-16.00819717647768,-21.344428303998072z" style="fill:rgb(247,158,158)"/><path d="M-26.346764825963294,-35.1329412334912L-30.037374770520838,-30.548228377789894L-22.725190825382647,-32.50001196469789zM-19.949650116616922,-28.93282084401497L-22.191566022269413,-32.06256092424323L-23.7049722006641,-29.80011000694892zM-26.346764825963294,-35.1329412334912L-7.273799697425938,-40.241018524655274L-7.261076902527638,-41.99167657449558z" style="fill:rgb(83,212,212)"/><path d="M-22.725190825382647,-32.50001196469789L-21.858685303245778,-30.83450389371357L-18.189168035058945,-35.41966506377659z" style="fill:rgb(224,99,205)"/><path d="M-8.606010547519181,-23.26597726599794L-9.840902520184255,-22.312579199489544L-8.880089287087404,-20.440144458644898z" style="fill:rgb(231,109,199)"/><path d="M-9.057909541481306,-33.70085825117573L-11.42057212924418,-36.084963290265904L-15.004371118997438,-35.12786175880511z" style="fill:rgb(83,212,212)"/><path d="M-19.04764521613565,-37.087774875526L-12.381682634167298,-35.595423998069215L-13.233568962801273,-37.268519914220626z" style="fill:rgb(90,32,203)"/><path d="M-8.88012741737708,-20.44008565170449L-20.145977947043797,-26.105587336944467L-16.192479018908582,-18.51678977293745z" style="fill:rgb(127,37,217)"/><path d="M-19.949650116616922,-28.93282084401497L-23.7049722006641,-29.80011000694892L-22.274319525392897,-28.31480254880647zM-9.057909541481306,-33.70085825117573L-15.004371118997438,-35.12786175880511L-12.03778831729603,-32.907267429197574zM-19.04764521613565,-37.087774875526L-13.233568962801273,-37.268519914220626L-7.283836619869807,-38.85993256149379zM-19.04764521613565,-37.087774875526L-7.283836619869807,-38.85993256149379L-7.273799697425938,-40.241018524655274z" style="fill:rgb(83,212,212)"/><path d="M-15.341029238471695,-29.54272382544175L-15.546785197026386,-29.537095473602566L-10.14141189566421,-19.041263925848362z" style="fill:rgb(90,32,203)"/><path d="M-15.21133952064672,-29.705598320301792L-15.341029238471695,-29.54272382544175L-9.937137645107185,-19.045800845785635z" style="fill:rgb(224,99,205)"/><path d="M-20.194369050683367,-29.56863924437299L-20.197473352588105,-29.40985928870845L-19.99296291709223,-29.41545550872379z" style="fill:rgb(83,212,212)"/><path d="M-30.037374770520838,-30.548228377789894L-29.161123003591555,-28.888763409051307L-20.697261150613173,-22.369574508088533z" style="fill:rgb(30,49,155)"/><path d="M-12.282139152099049,-33.386225015375544L-12.407809947970259,-33.48024762793249L-12.410961885289474,-33.224279254256864zM-15.094808760526437,-29.06434486329244L-19.949650116616922,-28.93282084401497L-22.274319525392897,-28.31480254880647zM-30.037374770520838,-30.548228377789894L-19.185665630933848,-29.812519224968142L-22.725190825382647,-32.50001196469789zM-15.094808760526437,-29.06434486329244L-22.274319525392897,-28.31480254880647L-21.38666009921547,-27.393450617288607z" style="fill:rgb(83,212,212)"/><path d="M-19.99296291709223,-29.41545550872379L-21.060127970469342,-31.23572100452981L-20.194369050683367,-29.56863924437299z" style="fill:rgb(30,49,155)"/><path d="M-9.057909541481306,-33.70085825117573L-12.788405636096858,-28.056544510566386L-8.88012741737708,-20.44008565170449z" style="fill:rgb(231,109,199)"/><path d="M-12.407809947970259,-33.48024762793249L-13.264905746459057,-34.8976369654132L-12.410961885289474,-33.224279254256864zM-7.3396151722168375,-31.18480157957712L-6.419844863966387,-40.314026578104084L-7.261076902527638,-41.99167657449558z" style="fill:rgb(247,158,158)"/><path d="M-11.489470295436655,-30.021795637383047L-9.057909541481306,-33.70085825117573L-12.03778831729603,-32.907267429197574z" style="fill:rgb(83,212,212)"/><path d="M-19.99296291709223,-29.41545550872379L-20.858630736990133,-31.082727138616647L-21.060127970469342,-31.23572100452981z" style="fill:rgb(30,49,155)"/><path d="M-12.407809947970259,-33.48024762793249L-13.261531694379332,-35.15357813692576L-13.264905746459057,-34.8976369654132z" style="fill:rgb(247,158,158)"/><path d="M-30.037374770520838,-30.548228377789894L-26.5373266148232,-27.856827236646797L-19.185665630933848,-29.812519224968142z" style="fill:rgb(83,212,212)"/><path d="M-8.88012741737708,-20.44008565170449L-12.788405636096858,-28.056544510566386L-20.145977947043797,-26.105587336944467z" style="fill:rgb(127,37,217)"/><path d="M-11.489470295436655,-30.021795637383047L-12.03778831729603,-32.907267429197574L-15.094808760526437,-29.06434486329244zM-13.233568962801273,-37.268519914220626L-7.316506061830145,-34.36461354922462L-7.283836619869807,-38.85993256149379zM-12.788405636096858,-28.056544510566386L-21.38666009921547,-27.393450617288607L-20.145977947043797,-26.105587336944467zM-15.21133952064672,-29.705598320301792L-15.546785197026386,-29.537095473602566L-15.341029238471695,-29.54272382544175zM-12.788405636096858,-28.056544510566386L-11.489470295436655,-30.021795637383047L-21.38666009921547,-27.393450617288607z" style="fill:rgb(83,212,212)"/><path d="M-26.931177439157338,-17.560804788735663L-2.774584090787134,-24.7786274084473L-28.045259990123604,-18.114855880103168z" style="fill:rgb(152,4,152)"/><path d="M-16.07142659087728,-31.376942590870463L-15.546785197026386,-29.537095473602566L-15.21133952064672,-29.705598320301792z" style="fill:rgb(164,51,222)"/><path d="M-13.233568962801273,-37.268519914220626L-13.292836304897659,-32.77272489687268L-7.316506061830145,-34.36461354922462z" style="fill:rgb(83,212,212)"/><path d="M-16.07142659087728,-31.376942590870463L-16.407392067960284,-31.2081699321996L-15.546785197026386,-29.537095473602566z" style="fill:rgb(164,51,222)"/><path d="M-26.931177439157338,-17.560804788735663L-1.7383076213576178,-24.19874657873721L-2.774584090787134,-24.7786274084473z" style="fill:rgb(152,4,152)"/><path d="M-3.974977428994877,-26.29458908054888L-0.9418492051207085,-24.589136653558L-0.6484546076134403,-25.36430860444817zM-7.3396151722168375,-31.18480157957712L-6.489175407046297,-29.50594722095022L-6.419844863966387,-40.314026578104084z" style="fill:rgb(247,158,158)"/><path d="M-30.037374770520838,-30.548228377789894L-20.697261150613173,-22.369574508088533L-21.569819219923016,-24.036948384962955z" style="fill:rgb(30,49,155)"/><path d="M-13.292836304897659,-32.77272489687268L-19.185665630933848,-29.812519224968142L-7.326661301532903,-32.96725568425233zM-4.901372592246701,-33.818539756043336L-30.13976848351044,-27.103324864680552L-30.31127720669227,-21.333138730000222zM-13.292836304897659,-32.77272489687268L-7.326661301532903,-32.96725568425233L-7.316506061830145,-34.36461354922462z" style="fill:rgb(83,212,212)"/><path d="M-3.974977428994877,-26.29458908054888L-1.7383076213576178,-24.19874657873721L-0.9418492051207085,-24.589136653558z" style="fill:rgb(247,158,158)"/><path d="M-26.5373266148232,-27.856827236646797L-7.3396151722168375,-31.18480157957712L-7.326661301532903,-32.96725568425233z" style="fill:rgb(83,212,212)"/><path d="M-28.045259990123604,-18.114855880103168L-3.974977428994877,-26.29458908054888L-29.315087200444808,-19.60102095238941z" style="fill:rgb(142,14,184)"/><path d="M-3.974977428994877,-26.29458908054888L-0.6484546076134403,-25.36430860444817L-4.901372592246701,-33.818539756043336z" style="fill:rgb(247,158,158)"/><path d="M-26.5373266148232,-27.856827236646797L-21.569819219923016,-24.036948384962955L-7.3396151722168375,-31.18480157957712z" style="fill:rgb(83,212,212)"/><path d="M-32.80223186350902,-73.18229427622683L-9.809232342375205,-19.20807260639651L-7.047311800073878,-22.71386020428599z" style="fill:rgb(224,99,205)"/><path d="M1.2541649250739124,-21.58215589137764L1.245715823309951,-28.45059155638302L-24.07749553044208,-79.1141664371788z" style="fill:rgb(247,158,158)"/><path d="M-28.045259990123604,-18.114855880103168L-2.774584090787134,-24.7786274084473L-3.974977428994877,-26.29458908054888z" style="fill:rgb(142,14,184)"/><path d="M-21.569819219923016,-24.036948384962955L-20.697261150613173,-22.369574508088533L-6.489175407046297,-29.50594722095022z" style="fill:rgb(164,51,222)"/><path d="M-36.0986762386891,-69.4435314527571L-14.555667979141857,-18.943252308196634L-10.14141189566421,-19.041263925848362z" style="fill:rgb(90,32,203)"/><path d="M-3.974977428994877,-26.29458908054888L-2.774584090787134,-24.7786274084473L-1.7383076213576178,-24.19874657873721z" style="fill:rgb(247,158,158)"/><path d="M-21.569819219923016,-24.036948384962955L-6.489175407046297,-29.50594722095022L-7.3396151722168375,-31.18480157957712z" style="fill:rgb(164,51,222)"/><path d="M-29.315087200444808,-19.60102095238941L-4.929439856016268,-28.050338587901145L-30.31127720669227,-21.333138730000222z" style="fill:rgb(130,31,211)"/><path d="M-4.901372592246701,-33.818539756043336L-30.31127720669227,-21.333138730000222L-4.929439856016268,-28.050338587901145z" style="fill:rgb(83,212,212)"/><path d="M-23.73682182876651,-15.018430382184206L1.2541649250739124,-21.58215589137764L-24.24858922808739,-72.27821582418945z" style="fill:rgb(127,37,217)"/><path d="M-29.315087200444808,-19.60102095238941L-3.974977428994877,-26.29458908054888L-4.929439856016268,-28.050338587901145z" style="fill:rgb(130,31,211)"/><path d="M-3.974977428994877,-26.29458908054888L-4.901372592246701,-33.818539756043336L-4.929439856016268,-28.050338587901145z" style="fill:rgb(247,158,158)"/><path d="M-40.664121096252366,-69.2280091157717L-21.063373239545797,-31.076958158171134L-20.858630736990133,-31.082727138616647z" style="fill:rgb(90,32,203)"/><path d="M-32.66660147462983,-73.3463002489015L-13.264905746459057,-34.8976369654132L-13.135800780603823,-35.05967478953741zM-35.75082164787882,-69.61848156242033L-16.201401145174497,-31.213974224122644L-16.07142659087728,-31.376942590870463z" style="fill:rgb(224,99,205)"/><path d="M-35.8873833247678,-69.45350541615832L-16.407392067960284,-31.2081699321996L-16.201401145174497,-31.213974224122644zM-36.0986762386891,-69.4435314527571L-40.664121096252366,-69.2280091157717L-14.555667979141857,-18.943252308196634z" style="fill:rgb(90,32,203)"/><path d="M-23.73682182876651,-15.018430382184206L-24.24858922808739,-72.27821582418945L-50.25868175578066,-65.07568432775415z" style="fill:rgb(127,37,217)"/><path d="M-32.80223186350902,-73.18229427622683L-35.75082164787882,-69.61848156242033L-9.809232342375205,-19.20807260639651z" style="fill:rgb(224,99,205)"/><path d="M1.2541649250739124,-21.58215589137764L-24.07749553044208,-79.1141664371788L-24.24858922808739,-72.27821582418945z" style="fill:rgb(247,158,158)"/><path d="M-40.664121096252366,-69.2280091157717L-40.87409964947583,-69.2180974621352L-21.063373239545797,-31.076958158171134z" style="fill:rgb(90,32,203)"/><path d="M-32.66660147462983,-73.3463002489015L-32.80223186350902,-73.18229427622683L-13.264905746459057,-34.8976369654132z" style="fill:rgb(224,99,205)"/><path d="M-35.8873833247678,-69.45350541615832L-36.0986762386891,-69.4435314527571L-16.407392067960284,-31.2081699321996z" style="fill:rgb(90,32,203)"/><path d="M-35.75082164787882,-69.61848156242033L-35.8873833247678,-69.45350541615832L-16.201401145174497,-31.213974224122644z" style="fill:rgb(224,99,205)"/><path d="M-33.56573154799629,-71.39299428841954L-40.717081341106194,-72.95145133117799L-38.60007754140428,-68.86081425198275zM-33.56573154799629,-71.39299428841954L-35.66432168725219,-75.49321457806957L-40.717081341106194,-72.95145133117799z" style="fill:rgb(164,51,222)"/><path d="M-30.570873141641652,-69.23805182857774L-35.66432168725219,-75.49321457806957L-33.56573154799629,-71.39299428841954z" style="fill:rgb(30,49,155)"/><path d="M-32.56495626594354,-76.35639711268942L-41.51589509165314,-74.01607583579494L-41.522522610439175,-73.86168532024107zM-40.717081341106194,-72.95145133117799L-41.522522610439175,-73.86168532024107L-41.5718059274433,-72.7136492837706zM-40.717081341106194,-72.95145133117799L-35.66432168725219,-75.49321457806957L-41.522522610439175,-73.86168532024107zM-32.56495626594354,-76.35639711268942L-32.559746726239204,-76.51072465178599L-41.51589509165314,-74.01607583579494z" style="fill:rgb(83,212,212)"/><path d="M-38.60007754140428,-68.86081425198275L-40.717081341106194,-72.95145133117799L-40.87408818286314,-69.21816390664132zM-38.60007754140428,-68.86081425198275L-40.87408818286314,-69.21816390664132L-38.74837254183053,-65.12557080348591zM-32.559746726239204,-76.51072465178599L-30.671121079077455,-66.05107401633995L-30.471278514707127,-72.40426907222007z" style="fill:rgb(247,158,158)"/><path d="M-50.25868175578066,-65.07568432775415L-24.07749553044208,-79.1141664371788L-49.90634236903683,-71.91823730181572zM-40.87408818286314,-69.21816390664132L-40.717081341106194,-72.95145133117799L-41.5718059274433,-72.7136492837706zM-32.66660147462983,-73.3463002489015L-35.664315885023704,-75.49313273536808L-40.7171556589813,-72.9514280320068z" style="fill:rgb(83,212,212)"/><path d="M-30.570873141641652,-69.23805182857774L-32.66656119915646,-73.34627330314792L-35.66432168725219,-75.49321457806957z" style="fill:rgb(30,49,155)"/><path d="M-32.56495626594354,-76.35639711268942L-35.66432168725219,-75.49321457806957L-32.66656119915646,-73.34627330314792zM-40.87408818286314,-69.21816390664132L-41.5718059274433,-72.7136492837706L-41.73207411134781,-68.98024885768177zM-32.66660147462983,-73.3463002489015L-40.7171556589813,-72.9514280320068L-40.87409964947583,-69.2180974621352zM-28.81868030637517,-78.812230253416L-35.70049384953869,-83.66799555063682L-47.24207796277068,-77.86123818593242zM-28.81868030637517,-78.812230253416L-35.70049384953869,-83.66799555063682L-47.24207796277068,-77.86123818593242z" style="fill:rgb(83,212,212)"/><path d="M-32.559746726239204,-76.51072465178599L-32.77407866322792,-70.16098647618641L-30.671121079077455,-66.05107401633995z" style="fill:rgb(247,158,158)"/><path d="M-32.77407866322792,-70.16098647618641L-39.6570629859985,-63.57270312180115L-30.671121079077455,-66.05107401633995zM-32.77407866322792,-70.16098647618641L-41.78856913024119,-67.66421393128556L-39.6570629859985,-63.57270312180115z" style="fill:rgb(127,37,217)"/><path d="M-35.887395265679,-69.45342254644781L-40.87408818286314,-69.21816390664132L-41.73207411134781,-68.98024885768177zM-32.66660147462983,-73.3463002489015L-40.87409964947583,-69.2180974621352L-35.8873833247678,-69.45350541615832zM-35.887395265679,-69.45342254644781L-41.73207411134781,-68.98024885768177L-41.781856239598746,-67.8205843204927zM-50.25868175578066,-65.07568432775415L-24.24858922808739,-72.27821582418945L-24.07749553044208,-79.1141664371788zM-32.77407866322792,-70.16098647618641L-41.781856239598746,-67.8205843204927L-41.78856913024119,-67.66421393128556zM-28.81868030637517,-78.812230253416L-47.24207796277068,-77.86123818593242L-47.6602573592042,-69.33465332098002zM-28.81868030637517,-78.812230253416L-47.24207796277068,-77.86123818593242L-47.6602573592042,-69.33465332098002zM-32.76880228553906,-70.31731185592808L-32.66656119915646,-73.34627330314792L-35.887395265679,-69.45342254644781zM-32.77407866322792,-70.16098647618641L-32.76880228553906,-70.31731185592808L-41.781856239598746,-67.8205843204927z" style="fill:rgb(83,212,212)"/><path d="M-34.233921999190216,-66.03055124703951L-47.6602573592042,-69.33465332098002L-45.65116530063281,-65.5111590454998zM-34.233921999190216,-66.03055124703951L-47.6602573592042,-69.33465332098002L-45.65116530063281,-65.5111590454998z" style="fill:rgb(90,32,203)"/><path d="M-26.873984736873314,-74.95521381994111L-28.81868030637517,-78.812230253416L-36.21470393144369,-69.87743629491258zM-26.873984736873314,-74.95521381994111L-28.81868030637517,-78.812230253416L-36.21470393144369,-69.87743629491258zM-26.873984736873314,-74.95521381994111L-36.21470393144369,-69.87743629491258L-34.233921999190216,-66.03055124703951zM-26.873984736873314,-74.95521381994111L-36.21470393144369,-69.87743629491258L-34.233921999190216,-66.03055124703951z" style="fill:rgb(224,99,205)"/><path d="M-28.81868030637517,-78.812230253416L-47.6602573592042,-69.33465332098002L-36.21470393144369,-69.87743629491258zM-28.81868030637517,-78.812230253416L-47.6602573592042,-69.33465332098002L-36.21470393144369,-69.87743629491258z" style="fill:rgb(83,212,212)"/><path d="M-34.233921999190216,-66.03055124703951L-36.21470393144369,-69.87743629491258L-47.6602573592042,-69.33465332098002zM-34.233921999190216,-66.03055124703951L-36.21470393144369,-69.87743629491258L-47.6602573592042,-69.33465332098002z" style="fill:rgb(90,32,203)"/></svg>
