<?xml version="1.0" encoding="UTF-8"?>
<!-- Generated by jsxcad -->
<!DOCTYPE svg PUBLIC "-//W3C//DTD SVG 1.1 Tiny//EN" "http://www.w3.org/Graphics/SVG/1.1/DTD/svg11-tiny.dtd">
<svg viewBox="-250 -250 500 500" width="500" height="500" xmlns="http://www.w3.org/2000/svg"><path d="M-3.3076353016410107,-43.28600819868235L-4.121127511248978,-46.75970226898487L-5.0687426624581216,-50.207619660147174zM-3.3076353016410107,-43.28600819868235L-3.3118707631247024,-43.307855670984786L-4.121127511248978,-46.75970226898487zM-3.3076353016410107,-43.28600819868235L-5.0687426624581216,-50.207619660147174L-6.131857639046119,-53.56835576075626zM-3.3076353016410107,-43.28600819868235L-6.131857639046119,-53.56835576075626L-7.284648570098456,-56.75878293757639zM-1.8945174785133843,-33.76069649303476L-2.6608155100642343,-39.93636062734622L-3.3076353016410107,-43.28600819868235zM-3.3076353016410107,-43.28600819868235L-7.284648570098456,-56.75878293757639L-8.4994303924807,-59.70111948942251zM-1.8945174785133843,-33.76069649303476L-2.184205162774678,-36.72753931916092L-2.6608155100642343,-39.93636062734622zM-3.3076353016410107,-43.28600819868235L-8.4994303924807,-59.70111948942251L-9.43381576725844,-61.66433070826696zM-1.8945174785133843,-33.76069649303476L-2.0124684298022166,-34.96915804256003L-2.184205162774678,-36.72753931916092z" style="fill:rgb(247,158,158)"/><path d="M-3.3264897629772654,-37.598089655058374L-28.33272899820209,-30.923863079279403L-28.525343725999182,-24.05625713838182zM-9.43381576725844,-61.66433070826696L-34.39401947108701,-54.8435190643126L-34.79963072747702,-43.2123210595601z" style="fill:rgb(83,212,212)"/><path d="M-3.3264897629772654,-37.598089655058374L-34.79963072747702,-43.2123210595601L-28.33272899820209,-30.923863079279403z" style="fill:rgb(127,37,217)"/><path d="M-1.8945174785133843,-33.76069649303476L-1.9037650568255828,-28.843558688201195L-1.7998580925280807,-31.110135971333314zM-1.8945174785133843,-33.76069649303476L-3.3076353016410107,-43.28600819868235L-3.3685791946042376,-24.900762779890215zM-3.3076353016410107,-43.28600819868235L-9.43381576725844,-61.66433070826696L-9.545769834130905,-50.04086272351153z" style="fill:rgb(247,158,158)"/><path d="M-17.12977136731287,-36.457556906128296L-24.207385110523266,-42.42692890780626L-20.217587155513925,-34.70774297697667zM-24.207385110523266,-42.42692890780626L-20.217587155513925,-34.70774297697667L-17.12977136731287,-36.457556906128296z" style="fill:rgb(173,56,222)"/><path d="M-1.8945174785133843,-33.76069649303476L-2.0262017760058204,-28.10307641939446L-1.9037650568255828,-28.843558688201195zM-3.3076353016410107,-43.28600819868235L-9.545769834130905,-50.04086272351153L-3.3264897629772654,-37.598089655058374z" style="fill:rgb(247,158,158)"/><path d="M-14.068931073656728,-36.35130684287264L-21.096777081071195,-44.188037687622575L-17.12977136731287,-36.457556906128296zM-21.096777081071195,-44.188037687622575L-17.12977136731287,-36.457556906128296L-14.068931073656728,-36.35130684287264z" style="fill:rgb(81,32,198)"/><path d="M-24.642929054121534,-51.4191530853632L-27.881497764791035,-49.72150222871639L-30.71192454044904,-47.54265728735019zM-3.3264897629772654,-37.598089655058374L-28.525343725999182,-24.05625713838182L-3.349245977582336,-30.733109917558387z" style="fill:rgb(83,212,212)"/><path d="M-1.8945174785133843,-33.76069649303476L-2.2053136993000324,-27.02094874306186L-2.0262017760058204,-28.10307641939446z" style="fill:rgb(247,158,158)"/><path d="M-24.642929054121534,-51.4191530853632L-17.88593668547797,-52.924601062825054L-21.22883949227728,-52.513672152356925zM-24.642929054121534,-51.4191530853632L-30.71192454044904,-47.54265728735019L-32.92808563683024,-45.0394873526065z" style="fill:rgb(83,212,212)"/><path d="M-20.217587155513925,-34.70774297697667L-25.543840901496104,-39.83450617767878L-21.536859611565095,-32.11901855297549zM-25.543840901496104,-39.83450617767878L-21.536859611565095,-32.11901855297549L-20.217587155513925,-34.70774297697667z" style="fill:rgb(238,121,190)"/><path d="M-24.642929054121534,-51.4191530853632L-32.92808563683024,-45.0394873526065L-33.5604022879361,-43.87603400669926zM-24.642929054121534,-51.4191530853632L-14.85673919500336,-52.61948512840898L-17.88593668547797,-52.924601062825054z" style="fill:rgb(83,212,212)"/><path d="M-17.12977136731287,-36.457556906128296L-21.096777081071195,-44.188037687622575L-24.207385110523266,-42.42692890780626zM-24.207385110523266,-42.42692890780626L-17.12977136731287,-36.457556906128296L-21.096777081071195,-44.188037687622575z" style="fill:rgb(173,56,222)"/><path d="M-12.82160942940744,-34.443800185047884L-18.020696482170766,-44.09417204274605L-14.068931073656728,-36.35130684287264zM-18.020696482170766,-44.09417204274605L-14.068931073656728,-36.35130684287264L-12.82160942940744,-34.443800185047884z" style="fill:rgb(16,64,133)"/><path d="M-1.8945174785133843,-33.76069649303476L-2.6986717320322935,-25.692267058342072L-2.2053136993000324,-27.02094874306186z" style="fill:rgb(247,158,158)"/><path d="M-20.217587155513925,-34.70774297697667L-24.207385110523266,-42.42692890780626L-25.543840901496104,-39.83450617767878zM-25.543840901496104,-39.83450617767878L-20.217587155513925,-34.70774297697667L-24.207385110523266,-42.42692890780626z" style="fill:rgb(238,121,190)"/><path d="M-14.068931073656728,-36.35130684287264L-18.020696482170766,-44.09417204274605L-21.096777081071195,-44.188037687622575zM-21.096777081071195,-44.188037687622575L-14.068931073656728,-36.35130684287264L-18.020696482170766,-44.09417204274605z" style="fill:rgb(81,32,198)"/><path d="M-9.43381576725844,-61.66433070826696L-34.79963072747702,-43.2123210595601L-9.545769834130905,-50.04086272351153zM-24.642929054121534,-51.4191530853632L-12.364409132181672,-51.61679778888244L-14.85673919500336,-52.61948512840898z" style="fill:rgb(83,212,212)"/><path d="M-3.3264897629772654,-37.598089655058374L-9.545769834130905,-50.04086272351153L-34.79963072747702,-43.2123210595601z" style="fill:rgb(127,37,217)"/><path d="M-16.259574708280102,-45.49271727091013L-24.73471753724194,-44.64255084778375L-25.922046767871624,-42.886575361374256zM-33.5604022879361,-43.87603400669926L-34.366685877877565,-42.39214805387357L-34.37145944790775,-42.36911299154703zM-16.259574708280102,-45.49271727091013L-17.39063313171779,-46.62600281897157L-24.73471753724194,-44.64255084778375zM-24.642929054121534,-51.4191530853632L-33.5604022879361,-43.87603400669926L-10.681048434007087,-50.06439155790647zM-24.207385110523266,-42.42692890780626L-25.922046767871624,-42.886575361374256L-26.684260841838896,-41.759438958349584zM-24.207385110523266,-42.42692890780626L-21.096777081071195,-44.188037687622575L-25.922046767871624,-42.886575361374256zM-33.5604022879361,-43.87603400669926L-34.37145944790775,-42.36911299154703L-26.257541617528393,-44.56114395257835z" style="fill:rgb(83,212,212)"/><path d="M-1.8945174785133843,-33.76069649303476L-3.3685791946042376,-24.900762779890215L-2.6986717320322935,-25.692267058342072z" style="fill:rgb(247,158,158)"/><path d="M-24.96554497838152,-35.356809526314L-24.503159963358225,-31.327760149934804L-20.94348394057311,-27.636401940386527z" style="fill:rgb(23,55,145)"/><path d="M-33.5604022879361,-43.87603400669926L-26.257541617528393,-44.56114395257835L-23.11656433122267,-46.70086135278297z" style="fill:rgb(83,212,212)"/><path d="M-26.257541617528393,-44.56114395257835L-25.37992351114368,-42.86604672010969L-22.24431201505334,-45.00332682828038z" style="fill:rgb(187,64,221)"/><path d="M-24.642929054121534,-51.4191530853632L-10.681048434007087,-50.06439155790647L-12.364409132181672,-51.61679778888244zM-25.543840901496104,-39.83450617767878L-24.207385110523266,-42.42692890780626L-26.684260841838896,-41.759438958349584z" style="fill:rgb(83,212,212)"/><path d="M-23.11656433122267,-46.70086135278297L-22.24431201505334,-45.00332682828038L-18.718678790164613,-45.506679717890584z" style="fill:rgb(106,33,210)"/><path d="M-24.96554497838152,-35.356809526314L-28.52846976288647,-39.03183886995726L-24.503159963358225,-31.327760149934804z" style="fill:rgb(23,55,145)"/><path d="M-26.257541617528393,-44.56114395257835L-22.24431201505334,-45.00332682828038L-23.11656433122267,-46.70086135278297z" style="fill:rgb(187,64,221)"/><path d="M-25.543840901496104,-39.83450617767878L-26.684260841838896,-41.759438958349584L-28.52846976288647,-39.03183886995726z" style="fill:rgb(83,212,212)"/><path d="M-12.82160942940744,-34.443800185047884L-16.774564458744504,-42.19285952772545L-18.020696482170766,-44.09417204274605zM-18.020696482170766,-44.09417204274605L-12.82160942940744,-34.443800185047884L-16.774564458744504,-42.19285952772545z" style="fill:rgb(16,64,133)"/><path d="M-15.533130598312285,-44.764543157131996L-16.259574708280102,-45.49271727091013L-21.096777081071195,-44.188037687622575zM-15.533130598312285,-44.764543157131996L-21.096777081071195,-44.188037687622575L-18.020696482170766,-44.09417204274605z" style="fill:rgb(83,212,212)"/><path d="M-13.77244249695854,-43.00023160901456L-13.576802195711329,-29.592962879433568L-9.838045790341912,-35.23966105105325z" style="fill:rgb(231,109,199)"/><path d="M-23.11656433122267,-46.70086135278297L-18.718678790164613,-45.506679717890584L-19.586578888346008,-47.20726145352854z" style="fill:rgb(106,33,210)"/><path d="M-34.37145944790775,-42.36911299154703L-27.552482933885766,-41.77853578940955L-26.257541617528393,-44.56114395257835zM-34.37145944790775,-42.36911299154703L-34.918874836759706,-39.7929149729013L-27.552482933885766,-41.77853578940955z" style="fill:rgb(83,212,212)"/><path d="M-27.552482933885766,-41.77853578940955L-25.37992351114368,-42.86604672010969L-26.257541617528393,-44.56114395257835zM-27.552482933885766,-41.77853578940955L-26.670953092944686,-40.084147390679625L-25.37992351114368,-42.86604672010969z" style="fill:rgb(240,125,187)"/><path d="M-19.586578888346008,-47.20726145352854L-18.718678790164613,-45.506679717890584L-16.440521915896685,-44.13679982397679z" style="fill:rgb(35,45,161)"/><path d="M-24.316593433299815,-37.92147595624376L-25.543840901496104,-39.83450617767878L-28.52846976288647,-39.03183886995726z" style="fill:rgb(83,212,212)"/><path d="M-13.576802195711329,-29.592962879433568L-24.96554497838152,-35.356809526314L-20.94348394057311,-27.636401940386527z" style="fill:rgb(127,37,217)"/><path d="M-23.11656433122267,-46.70086135278297L-19.586578888346008,-47.20726145352854L-10.46303717656428,-49.67396093713959zM-13.77244249695854,-43.00023160901456L-15.533130598312285,-44.764543157131996L-18.020696482170766,-44.09417204274605zM-23.11656433122267,-46.70086135278297L-10.59514313576526,-49.9850785112577L-10.681048434007087,-50.06439155790647zM-24.316593433299815,-37.92147595624376L-28.52846976288647,-39.03183886995726L-26.804568788023715,-37.25376349310247zM-23.11656433122267,-46.70086135278297L-10.46303717656428,-49.67396093713959L-10.59514313576526,-49.9850785112577zM-13.77244249695854,-43.00023160901456L-18.020696482170766,-44.09417204274605L-16.774564458744504,-42.19285952772545z" style="fill:rgb(83,212,212)"/><path d="M-19.586578888346008,-47.20726145352854L-16.440521915896685,-44.13679982397679L-17.30709018905621,-45.8396290090367z" style="fill:rgb(35,45,161)"/><path d="M-3.349245977582336,-30.733109917558387L-3.372983531179639,-24.895645555394008L-3.3685791946042376,-24.900762779890215z" style="fill:rgb(247,158,158)"/><path d="M-34.918874836759706,-39.7929149729013L-26.387017412365093,-39.64713393651856L-27.552482933885766,-41.77853578940955zM-34.918874836759706,-39.7929149729013L-34.54060117675815,-37.45428260646645L-26.387017412365093,-39.64713393651856z" style="fill:rgb(83,212,212)"/><path d="M-34.537326027747135,-37.433203000282695L-33.64419262019946,-35.74432981830914L-32.350329017744315,-33.79903777239971z" style="fill:rgb(17,63,135)"/><path d="M-9.685164011427313,-47.840545493246196L-9.739684446275472,-48.2769571443035L-10.59514313576526,-49.9850785112577z" style="fill:rgb(242,181,132)"/><path d="M-19.586578888346008,-47.20726145352854L-9.706346700904444,-47.89087260173779L-10.46303717656428,-49.67396093713959zM-19.586578888346008,-47.20726145352854L-17.30709018905621,-45.8396290090367L-9.706346700904444,-47.89087260173779zM-21.23161089240254,-37.81646299509207L-24.316593433299815,-37.92147595624376L-26.804568788023715,-37.25376349310247z" style="fill:rgb(83,212,212)"/><path d="M-13.77244249695854,-43.00023160901456L-17.5529865318676,-37.3417551084197L-13.576802195711329,-29.592962879433568z" style="fill:rgb(231,109,199)"/><path d="M-34.54060117675815,-37.45428260646645L-34.537326027747135,-37.433203000282695L-33.8138201960781,-36.34577138034757z" style="fill:rgb(83,212,212)"/><path d="M-9.685164011427313,-47.840545493246196L-8.828869031107361,-46.13126402590448L-9.739684446275472,-48.2769571443035z" style="fill:rgb(242,181,132)"/><path d="M-21.23161089240254,-37.81646299509207L-26.804568788023715,-37.25376349310247L-26.087858313796993,-36.514289975624486z" style="fill:rgb(83,212,212)"/><path d="M-3.349245977582336,-30.733109917558387L-4.2127329906500375,-24.65687990448556L-3.372983531179639,-24.895645555394008z" style="fill:rgb(247,158,158)"/><path d="M-15.6033580073948,-40.25989871661122L-13.77244249695854,-43.00023160901456L-16.774564458744504,-42.19285952772545z" style="fill:rgb(83,212,212)"/><path d="M-3.349245977582336,-30.733109917558387L-3.3264897629772654,-37.598089655058374L-19.14833657137427,-69.25250209667227z" style="fill:rgb(247,158,158)"/><path d="M-13.576802195711329,-29.592962879433568L-17.5529865318676,-37.3417551084197L-24.96554497838152,-35.356809526314z" style="fill:rgb(127,37,217)"/><path d="M-15.6033580073948,-40.25989871661122L-16.774564458744504,-42.19285952772545L-18.102120010967056,-39.589291087543046z" style="fill:rgb(83,212,212)"/><path d="M-34.537326027747135,-37.433203000282695L-32.350329017744315,-33.79903777239971L-33.24379270093778,-35.48932353866868z" style="fill:rgb(17,63,135)"/><path d="M-17.30709018905621,-45.8396290090367L-9.685164011427313,-47.840545493246196L-9.706346700904444,-47.89087260173779zM-34.54060117675815,-37.45428260646645L-33.8138201960781,-36.34577138034757L-23.29157751670298,-39.172238983438035zM-34.54060117675815,-37.45428260646645L-23.29157751670298,-39.172238983438035L-26.387017412365093,-39.64713393651856zM-16.363618645867195,-39.12178560713513L-18.102120010967056,-39.589291087543046L-21.23161089240254,-37.81646299509207zM-16.363618645867195,-39.12178560713513L-15.6033580073948,-40.25989871661122L-18.102120010967056,-39.589291087543046zM-17.5529865318676,-37.3417551084197L-26.087858313796993,-36.514289975624486L-24.96554497838152,-35.356809526314z" style="fill:rgb(83,212,212)"/><path d="M-33.24379270093778,-35.48932353866868L-32.350329017744315,-33.79903777239971L-30.2347805300162,-32.41745287591795z" style="fill:rgb(34,46,160)"/><path d="M-17.5529865318676,-37.3417551084197L-16.363618645867195,-39.12178560713513L-26.087858313796993,-36.514289975624486zM-17.30709018905621,-45.8396290090367L-9.709554525317579,-45.339140687427246L-9.685164011427313,-47.840545493246196z" style="fill:rgb(83,212,212)"/><path d="M-9.709554525317579,-45.339140687427246L-8.828869031107361,-46.13126402590448L-9.685164011427313,-47.840545493246196z" style="fill:rgb(247,158,158)"/><path d="M-29.613952774946753,-17.957064176012572L-5.197747083873143,-24.988021648361293L-30.67818888954339,-18.263586529468146z" style="fill:rgb(155,4,143)"/><path d="M-17.30709018905621,-45.8396290090367L-17.352554884126025,-43.22509542923471L-9.731892922112962,-45.27679261503863z" style="fill:rgb(83,212,212)"/><path d="M-3.349245977582336,-30.733109917558387L-5.197747083873143,-24.988021648361293L-4.2127329906500375,-24.65687990448556zM-9.709554525317579,-45.339140687427246L-8.85106809431231,-43.62950027032848L-8.828869031107361,-46.13126402590448z" style="fill:rgb(247,158,158)"/><path d="M-33.8138201960781,-36.34577138034757L-33.24379270093778,-35.48932353866868L-31.127142059262745,-34.10978538940311z" style="fill:rgb(83,212,212)"/><path d="M-28.525343725999182,-24.05625713838182L-3.349245977582336,-30.733109917558387L-19.283198127045328,-62.40767163736147z" style="fill:rgb(127,37,217)"/><path d="M-17.30709018905621,-45.8396290090367L-9.731892922112962,-45.27679261503863L-9.709554525317579,-45.339140687427246z" style="fill:rgb(83,212,212)"/><path d="M-33.24379270093778,-35.48932353866868L-30.2347805300162,-32.41745287591795L-31.127142059262745,-34.10978538940311z" style="fill:rgb(34,46,160)"/><path d="M-29.613952774946753,-17.957064176012572L-4.2127329906500375,-24.65687990448556L-5.197747083873143,-24.988021648361293z" style="fill:rgb(155,4,143)"/><path d="M-19.03765644403923,-27.75220193377463L-46.82238536138153,-80.8065799323923L-20.266673024309476,-29.67326175031331z" style="fill:rgb(16,64,133)"/><path d="M-33.8138201960781,-36.34577138034757L-31.127142059262745,-34.10978538940311L-28.340451400404124,-33.402277435573794z" style="fill:rgb(83,212,212)"/><path d="M-31.127142059262745,-34.10978538940311L-30.2347805300162,-32.41745287591795L-27.450558124529508,-31.707410854725463z" style="fill:rgb(58,36,183)"/><path d="M-17.352554884126025,-43.22509542923471L-19.717037147929613,-40.587233726302955L-10.53288621498232,-43.05529747577405zM-17.352554884126025,-43.22509542923471L-10.53288621498232,-43.05529747577405L-9.731892922112962,-45.27679261503863z" style="fill:rgb(83,212,212)"/><path d="M-3.349245977582336,-30.733109917558387L-6.303742792489216,-25.88589664445034L-5.197747083873143,-24.988021648361293z" style="fill:rgb(247,158,158)"/><path d="M-10.67338573041658,-42.66580886250273L-8.85106809431231,-43.62950027032848L-9.709554525317579,-45.339140687427246z" style="fill:rgb(242,132,181)"/><path d="M-19.717037147929613,-40.587233726302955L-23.29157751670298,-39.172238983438035L-10.762165415677266,-42.53786714397527z" style="fill:rgb(83,212,212)"/><path d="M-10.67338573041658,-42.66580886250273L-9.811496337926503,-40.95662758781769L-8.85106809431231,-43.62950027032848z" style="fill:rgb(242,132,181)"/><path d="M-33.8138201960781,-36.34577138034757L-12.509295180298862,-40.02184580425849L-10.762165415677266,-42.53786714397527zM-33.8138201960781,-36.34577138034757L-28.340451400404124,-33.402277435573794L-25.090981877740113,-33.42466960841429z" style="fill:rgb(83,212,212)"/><path d="M-31.127142059262745,-34.10978538940311L-27.450558124529508,-31.707410854725463L-28.340451400404124,-33.402277435573794z" style="fill:rgb(58,36,183)"/><path d="M-30.67818888954339,-18.263586529468146L-6.303742792489216,-25.88589664445034L-31.86023395759422,-19.133863629222798z" style="fill:rgb(149,7,163)"/><path d="M-19.717037147929613,-40.587233726302955L-10.67338573041658,-42.66580886250273L-10.53288621498232,-43.05529747577405zM-19.717037147929613,-40.587233726302955L-10.762165415677266,-42.53786714397527L-10.67338573041658,-42.66580886250273zM-33.8138201960781,-36.34577138034757L-15.082349710799306,-37.60842764045706L-12.509295180298862,-40.02184580425849z" style="fill:rgb(83,212,212)"/><path d="M-28.340451400404124,-33.402277435573794L-27.450558124529508,-31.707410854725463L-24.204744506451796,-31.726956287677126z" style="fill:rgb(87,32,202)"/><path d="M-33.8138201960781,-36.34577138034757L-25.090981877740113,-33.42466960841429L-21.622552848577484,-34.178886794082224z" style="fill:rgb(83,212,212)"/><path d="M-15.972718904955489,-27.631096071908736L-45.60553238902641,-78.93026465692787L-19.03765644403923,-27.75220193377463z" style="fill:rgb(81,32,199)"/><path d="M-9.6118297227819,-43.18228971322828L-35.038938812474754,-36.34999003621072L-35.45999710255534,-24.27584585215498z" style="fill:rgb(83,212,212)"/><path d="M-30.67818888954339,-18.263586529468146L-5.197747083873143,-24.988021648361293L-6.303742792489216,-25.88589664445034z" style="fill:rgb(149,7,163)"/><path d="M-12.509295180298862,-40.02184580425849L-9.811496337926503,-40.95662758781769L-10.67338573041658,-42.66580886250273zM-12.509295180298862,-40.02184580425849L-11.643034182196553,-38.313919730684646L-9.811496337926503,-40.95662758781769z" style="fill:rgb(229,107,200)"/><path d="M-3.349245977582336,-30.733109917558387L-7.502414332977515,-27.332593007484128L-6.303742792489216,-25.88589664445034z" style="fill:rgb(247,158,158)"/><path d="M-33.8138201960781,-36.34577138034757L-18.19933202851578,-35.60961181930977L-15.082349710799306,-37.60842764045706zM-33.8138201960781,-36.34577138034757L-21.622552848577484,-34.178886794082224L-18.19933202851578,-35.60961181930977z" style="fill:rgb(83,212,212)"/><path d="M-11.568575892382242,-31.98745242589366L-39.1884632239571,-80.72738248044018L-12.873477345093017,-29.388785538826824z" style="fill:rgb(238,121,190)"/><path d="M-3.349245977582336,-30.733109917558387L-9.6118297227819,-43.18228971322828L-9.728074759109969,-31.113313666822005z" style="fill:rgb(247,158,158)"/><path d="M-28.340451400404124,-33.402277435573794L-24.204744506451796,-31.726956287677126L-25.090981877740113,-33.42466960841429z" style="fill:rgb(87,32,202)"/><path d="M-12.873477345093017,-29.388785538826824L-42.440761672593005,-78.89411922224558L-15.972718904955489,-27.631096071908736z" style="fill:rgb(173,56,222)"/><path d="M-25.090981877740113,-33.42466960841429L-24.204744506451796,-31.726956287677126L-20.740881952572444,-32.478224479825364z" style="fill:rgb(119,35,215)"/><path d="M-15.082349710799306,-37.60842764045706L-14.211073981173186,-35.90245387142909L-11.643034182196553,-38.313919730684646zM-15.082349710799306,-37.60842764045706L-11.643034182196553,-38.313919730684646L-12.509295180298862,-40.02184580425849z" style="fill:rgb(209,82,214)"/><path d="M-21.622552848577484,-34.178886794082224L-20.740881952572444,-32.478224479825364L-17.32278219420554,-33.90612220644297z" style="fill:rgb(151,45,222)"/><path d="M-25.090981877740113,-33.42466960841429L-20.740881952572444,-32.478224479825364L-21.622552848577484,-34.178886794082224z" style="fill:rgb(119,35,215)"/><path d="M-18.19933202851578,-35.60961181930977L-17.32278219420554,-33.90612220644297L-14.211073981173186,-35.90245387142909z" style="fill:rgb(182,61,221)"/><path d="M-3.349245977582336,-30.733109917558387L-8.762765172237325,-29.29427533903568L-7.502414332977515,-27.332593007484128z" style="fill:rgb(247,158,158)"/><path d="M-31.86023395759422,-19.133863629222798L-7.502414332977515,-27.332593007484128L-33.1297083299896,-20.550665078098174z" style="fill:rgb(142,13,181)"/><path d="M-18.19933202851578,-35.60961181930977L-14.211073981173186,-35.90245387142909L-15.082349710799306,-37.60842764045706z" style="fill:rgb(182,61,221)"/><path d="M-21.622552848577484,-34.178886794082224L-17.32278219420554,-33.90612220644297L-18.19933202851578,-35.60961181930977z" style="fill:rgb(151,45,222)"/><path d="M-31.86023395759422,-19.133863629222798L-6.303742792489216,-25.88589664445034L-7.502414332977515,-27.332593007484128z" style="fill:rgb(142,13,181)"/><path d="M-3.349245977582336,-30.733109917558387L-9.728074759109969,-31.113313666822005L-8.762765172237325,-29.29427533903568z" style="fill:rgb(247,158,158)"/><path d="M-28.525343725999182,-24.05625713838182L-19.283198127045328,-62.40767163736147L-45.09609624169787,-55.33183007652111z" style="fill:rgb(127,37,217)"/><path d="M-33.1297083299896,-20.550665078098174L-8.762765172237325,-29.29427533903568L-34.45370115394637,-22.480904178369077z" style="fill:rgb(136,22,198)"/><path d="M-3.349245977582336,-30.733109917558387L-19.14833657137427,-69.25250209667227L-19.283198127045328,-62.40767163736147z" style="fill:rgb(247,158,158)"/><path d="M-9.6118297227819,-43.18228971322828L-35.45999710255534,-24.27584585215498L-9.728074759109969,-31.113313666822005z" style="fill:rgb(83,212,212)"/><path d="M-33.1297083299896,-20.550665078098174L-7.502414332977515,-27.332593007484128L-8.762765172237325,-29.29427533903568z" style="fill:rgb(136,22,198)"/><path d="M-34.45370115394637,-22.480904178369077L-9.728074759109969,-31.113313666822005L-35.45999710255534,-24.27584585215498z" style="fill:rgb(129,34,214)"/><path d="M-45.09609624169787,-55.33183007652111L-19.14833657137427,-69.25250209667227L-44.78271381765032,-62.182260099463505z" style="fill:rgb(83,212,212)"/><path d="M-34.45370115394637,-22.480904178369077L-8.762765172237325,-29.29427533903568L-9.728074759109969,-31.113313666822005z" style="fill:rgb(129,34,214)"/><path d="M-45.09609624169787,-55.33183007652111L-19.283198127045328,-62.40767163736147L-19.14833657137427,-69.25250209667227z" style="fill:rgb(83,212,212)"/><path d="M-19.03765644403923,-27.75220193377463L-45.60553238902641,-78.93026465692787L-46.82238536138153,-80.8065799323923z" style="fill:rgb(16,64,133)"/><path d="M-11.568575892382242,-31.98745242589366L-37.76826617100961,-83.34723588802045L-39.1884632239571,-80.72738248044018z" style="fill:rgb(238,121,190)"/><path d="M-15.972718904955489,-27.631096071908736L-42.440761672593005,-78.89411922224558L-45.60553238902641,-78.93026465692787z" style="fill:rgb(81,32,199)"/><path d="M-12.873477345093017,-29.388785538826824L-39.1884632239571,-80.72738248044018L-42.440761672593005,-78.89411922224558z" style="fill:rgb(173,56,222)"/><path d="M-35.34980372932916,-59.174512855884856L-46.82238536138153,-80.8065799323923L-36.57212074583147,-61.06957898107067z" style="fill:rgb(16,64,133)"/><path d="M-32.22306378941438,-59.10459307419809L-45.60553238902641,-78.93026465692787L-35.34980372932916,-59.174512855884856z" style="fill:rgb(81,32,199)"/><path d="M-27.654780823916905,-63.52156985268684L-39.1884632239571,-80.72738248044018L-29.029898262689056,-60.908776244690415z" style="fill:rgb(238,121,190)"/><path d="M-29.029898262689056,-60.908776244690415L-42.440761672593005,-78.89411922224558L-32.22306378941438,-59.10459307419809zM-40.020803946352515,-81.06517330329147L-45.39282747037327,-83.41506883974063L-43.24026096891652,-79.25043421312058zM-40.020803946352515,-81.06517330329147L-45.39282747037327,-83.41506883974063L-43.24026096891652,-79.25043421312058z" style="fill:rgb(173,56,222)"/><path d="M-35.34980372932916,-59.174512855884856L-45.60553238902641,-78.93026465692787L-46.82238536138153,-80.8065799323923z" style="fill:rgb(16,64,133)"/><path d="M-36.87333903376116,-81.03297129836797L-42.16104658514924,-85.23585679377645L-40.020803946352515,-81.06517330329147zM-36.87333903376116,-81.03297129836797L-42.16104658514924,-85.23585679377645L-40.020803946352515,-81.06517330329147z" style="fill:rgb(81,32,198)"/><path d="M-40.020803946352515,-81.06517330329147L-42.16104658514924,-85.23585679377645L-45.39282747037327,-83.41506883974063zM-40.020803946352515,-81.06517330329147L-42.16104658514924,-85.23585679377645L-45.39282747037327,-83.41506883974063z" style="fill:rgb(173,56,222)"/><path d="M-43.24026096891652,-79.25043421312058L-46.82238536138153,-80.8065799323923L-44.660217499421826,-76.64329616587948zM-43.24026096891652,-79.25043421312058L-46.82238536138153,-80.8065799323923L-44.660217499421826,-76.64329616587948zM-27.654780823916905,-63.52156985268684L-37.76826617100961,-83.34723588802045L-39.1884632239571,-80.72738248044018zM-43.24026096891652,-79.25043421312058L-45.39282747037327,-83.41506883974063L-46.82238536138153,-80.8065799323923zM-43.24026096891652,-79.25043421312058L-45.39282747037327,-83.41506883974063L-46.82238536138153,-80.8065799323923z" style="fill:rgb(238,121,190)"/><path d="M-45.39282747037327,-83.41506883974063L-46.668262468448006,-83.96758449084966L-46.713303626190566,-83.0438067039649zM-45.39282747037327,-83.41506883974063L-46.668262468448006,-83.96758449084966L-46.713303626190566,-83.0438067039649zM-45.39282747037327,-83.41506883974063L-42.16104658514924,-85.23585679377645L-46.668262468448006,-83.96758449084966zM-45.39282747037327,-83.41506883974063L-42.16104658514924,-85.23585679377645L-46.668262468448006,-83.96758449084966z" style="fill:rgb(83,212,212)"/><path d="M-36.87333903376116,-81.03297129836797L-39.00564562261772,-85.21088835175163L-42.16104658514924,-85.23585679377645zM-36.87333903376116,-81.03297129836797L-39.00564562261772,-85.21088835175163L-42.16104658514924,-85.23585679377645z" style="fill:rgb(81,32,198)"/><path d="M-32.22306378941438,-59.10459307419809L-42.440761672593005,-78.89411922224558L-45.60553238902641,-78.93026465692787z" style="fill:rgb(81,32,199)"/><path d="M-35.63487954215258,-79.16512652396692L-39.00564562261772,-85.21088835175163L-36.87333903376116,-81.03297129836797zM-35.63487954215258,-79.16512652396692L-39.00564562261772,-85.21088835175163L-36.87333903376116,-81.03297129836797z" style="fill:rgb(16,64,133)"/><path d="M-29.029898262689056,-60.908776244690415L-39.1884632239571,-80.72738248044018L-42.440761672593005,-78.89411922224558z" style="fill:rgb(173,56,222)"/><path d="M-45.39282747037327,-83.41506883974063L-46.713303626190566,-83.0438067039649L-46.82238536138153,-80.8065799323923zM-45.39282747037327,-83.41506883974063L-46.713303626190566,-83.0438067039649L-46.82238536138153,-80.8065799323923z" style="fill:rgb(83,212,212)"/><path d="M-37.64366609306782,-86.50699137140121L-35.75278084065243,-75.98241174453466L-35.51775298702868,-82.32690955723783zM-37.64366609306782,-86.50699137140121L-35.75278084065243,-75.98241174453466L-35.51775298702868,-82.32690955723783z" style="fill:rgb(247,158,158)"/><path d="M-37.680079029033855,-85.58359187978046L-37.64366609306782,-86.50699137140121L-42.16104658514924,-85.23585679377645zM-37.680079029033855,-85.58359187978046L-37.64366609306782,-86.50699137140121L-42.16104658514924,-85.23585679377645zM-37.680079029033855,-85.58359187978046L-42.16104658514924,-85.23585679377645L-39.00564562261772,-85.21088835175163zM-37.680079029033855,-85.58359187978046L-42.16104658514924,-85.23585679377645L-39.00564562261772,-85.21088835175163zM-39.1884632239571,-80.72738248044018L-42.16104658514924,-85.23585679377645L-45.392959612813065,-83.41512933742379zM-39.1884632239571,-80.72738248044018L-42.16104658514924,-85.23585679377645L-45.392959612813065,-83.41512933742379z" style="fill:rgb(83,212,212)"/><path d="M-35.63487954215258,-79.16512652396692L-37.76826617100961,-83.34723588802045L-39.00564562261772,-85.21088835175163zM-35.63487954215258,-79.16512652396692L-37.76826617100961,-83.34723588802045L-39.00564562261772,-85.21088835175163z" style="fill:rgb(16,64,133)"/><path d="M-39.1884632239571,-80.72738248044018L-39.00550922511837,-85.21102514786901L-42.16104658514924,-85.23585679377645zM-39.1884632239571,-80.72738248044018L-39.00550922511837,-85.21102514786901L-42.16104658514924,-85.23585679377645zM-37.680079029033855,-85.58359187978046L-39.00564562261772,-85.21088835175163L-37.76826617100961,-83.34723588802045zM-37.680079029033855,-85.58359187978046L-39.00564562261772,-85.21088835175163L-37.76826617100961,-83.34723588802045zM-39.1884632239571,-80.72738248044018L-45.392959612813065,-83.41512933742379L-46.82238536138153,-80.8065799323923zM-39.1884632239571,-80.72738248044018L-45.392959612813065,-83.41512933742379L-46.82238536138153,-80.8065799323923zM-45.605390646490825,-78.93039336372352L-46.82238536138153,-80.8065799323923L-46.93197772949242,-78.55888026508806zM-45.605390646490825,-78.93039336372352L-46.82238536138153,-80.8065799323923L-46.93197772949242,-78.55888026508806zM-42.82894200619668,-79.30684118361927L-45.77020969489594,-92.5521599782492L-49.16882534525878,-90.75297740154288zM-42.82894200619668,-79.30684118361927L-45.77020969489594,-92.5521599782492L-49.16882534525878,-90.75297740154288zM-39.1884632239571,-80.72738248044018L-37.76826617100961,-83.34723588802045L-39.00550922511837,-85.21102514786901zM-39.1884632239571,-80.72738248044018L-37.76826617100961,-83.34723588802045L-39.00550922511837,-85.21102514786901z" style="fill:rgb(83,212,212)"/><path d="M-37.64366609306782,-86.50699137140121L-37.893694164083506,-80.16650309322036L-35.75278084065243,-75.98241174453466zM-37.64366609306782,-86.50699137140121L-37.893694164083506,-80.16650309322036L-35.75278084065243,-75.98241174453466z" style="fill:rgb(247,158,158)"/><path d="M-39.1884632239571,-80.72738248044018L-46.82238536138153,-80.8065799323923L-45.60553238902641,-78.93026465692787zM-39.1884632239571,-80.72738248044018L-46.82238536138153,-80.8065799323923L-45.60553238902641,-78.93026465692787zM-42.82894200619668,-79.30684118361927L-42.19399203373976,-93.56591725964388L-45.77020969489594,-92.5521599782492zM-42.82894200619668,-79.30684118361927L-42.19399203373976,-93.56591725964388L-45.77020969489594,-92.5521599782492z" style="fill:rgb(83,212,212)"/><path d="M-37.893694164083506,-80.16650309322036L-44.807646750494754,-73.4594470877642L-35.75278084065243,-75.98241174453466zM-37.893694164083506,-80.16650309322036L-44.807646750494754,-73.4594470877642L-35.75278084065243,-75.98241174453466z" style="fill:rgb(127,37,217)"/><path d="M-42.82894200619668,-79.30684118361927L-49.16882534525878,-90.75297740154288L-51.989098062659394,-88.38035475648375zM-42.82894200619668,-79.30684118361927L-49.16882534525878,-90.75297740154288L-51.989098062659394,-88.38035475648375z" style="fill:rgb(83,212,212)"/><path d="M-37.893694164083506,-80.16650309322036L-46.977529615404094,-77.62462762894502L-44.807646750494754,-73.4594470877642zM-37.893694164083506,-80.16650309322036L-46.977529615404094,-77.62462762894502L-44.807646750494754,-73.4594470877642z" style="fill:rgb(127,37,217)"/><path d="M-42.440761672593005,-78.89411922224558L-45.605390646490825,-78.93039336372352L-46.93197772949242,-78.55888026508806zM-42.440761672593005,-78.89411922224558L-45.605390646490825,-78.93039336372352L-46.93197772949242,-78.55888026508806zM-42.82894200619668,-79.30684118361927L-38.862387528188385,-93.67238888881033L-42.19399203373976,-93.56591725964388zM-42.82894200619668,-79.30684118361927L-38.862387528188385,-93.67238888881033L-42.19399203373976,-93.56591725964388zM-42.82894200619668,-79.30684118361927L-51.989098062659394,-88.38035475648375L-53.89588531186539,-85.71321413033724zM-42.82894200619668,-79.30684118361927L-51.989098062659394,-88.38035475648375L-53.89588531186539,-85.71321413033724z" style="fill:rgb(83,212,212)"/><path d="M-50.45214772147661,-75.1759676627523L-54.17537235063034,-80.75879341551759L-52.13010328154306,-76.86983701107282zM-50.45214772147661,-75.1759676627523L-54.17537235063034,-80.75879341551759L-52.13010328154306,-76.86983701107282z" style="fill:rgb(23,55,145)"/><path d="M-42.440761672593005,-78.89411922224558L-46.93197772949242,-78.55888026508806L-46.977529615404094,-77.62462762894502zM-42.440761672593005,-78.89411922224558L-46.93197772949242,-78.55888026508806L-46.977529615404094,-77.62462762894502zM-37.856867396630044,-81.10039698126843L-37.76826617100961,-83.34723588802045L-39.18859218316915,-80.72744301043237zM-37.856867396630044,-81.10039698126843L-37.76826617100961,-83.34723588802045L-39.18859218316915,-80.72744301043237zM-39.1884632239571,-80.72738248044018L-45.60553238902641,-78.93026465692787L-42.440761672593005,-78.89411922224558zM-39.1884632239571,-80.72738248044018L-45.60553238902641,-78.93026465692787L-42.440761672593005,-78.89411922224558z" style="fill:rgb(83,212,212)"/><path d="M-32.4738522327939,-87.27948841106748L-33.91093271794462,-88.9119366423226L-31.93108088536687,-84.98519773768136zM-32.4738522327939,-87.27948841106748L-33.91093271794462,-88.9119366423226L-31.93108088536687,-84.98519773768136zM-32.4738522327939,-87.27948841106748L-34.45014985221294,-91.20341146905976L-33.91093271794462,-88.9119366423226zM-32.4738522327939,-87.27948841106748L-34.45014985221294,-91.20341146905976L-33.91093271794462,-88.9119366423226z" style="fill:rgb(245,173,142)"/><path d="M-42.82894200619668,-79.30684118361927L-36.17238912943869,-92.85438546384701L-38.862387528188385,-93.67238888881033zM-42.82894200619668,-79.30684118361927L-36.17238912943869,-92.85438546384701L-38.862387528188385,-93.67238888881033zM-42.82894200619668,-79.30684118361927L-53.89588531186539,-85.71321413033724L-54.65772390420202,-83.06704602779769zM-42.82894200619668,-79.30684118361927L-53.89588531186539,-85.71321413033724L-54.65772390420202,-83.06704602779769zM-37.893694164083506,-80.16650309322036L-39.18859218316915,-80.72744301043237L-42.440761672593005,-78.89411922224558zM-37.893694164083506,-80.16650309322036L-39.18859218316915,-80.72744301043237L-42.440761672593005,-78.89411922224558zM-37.893694164083506,-80.16650309322036L-37.856867396630044,-81.10039698126843L-39.18859218316915,-80.72744301043237zM-37.893694164083506,-80.16650309322036L-37.856867396630044,-81.10039698126843L-39.18859218316915,-80.72744301043237z" style="fill:rgb(83,212,212)"/><path d="M-50.45214772147661,-75.1759676627523L-52.49716555980462,-79.06966487011987L-54.17537235063034,-80.75879341551759zM-50.45214772147661,-75.1759676627523L-52.49716555980462,-79.06966487011987L-54.17537235063034,-80.75879341551759z" style="fill:rgb(23,55,145)"/><path d="M-47.77719491460681,-74.30999553502993L-52.49716555980462,-79.06966487011987L-50.45214772147661,-75.1759676627523zM-47.77719491460681,-74.30999553502993L-52.49716555980462,-79.06966487011987L-50.45214772147661,-75.1759676627523z" style="fill:rgb(50,38,176)"/><path d="M-42.82894200619668,-79.30684118361927L-34.45014985221294,-91.20341146905976L-36.17238912943869,-92.85438546384701zM-42.82894200619668,-79.30684118361927L-34.45014985221294,-91.20341146905976L-36.17238912943869,-92.85438546384701zM-42.82894200619668,-79.30684118361927L-54.65772390420202,-83.06704602779769L-54.17537235063034,-80.75879341551759zM-42.82894200619668,-79.30684118361927L-54.65772390420202,-83.06704602779769L-54.17537235063034,-80.75879341551759z" style="fill:rgb(83,212,212)"/><path d="M-31.93108088536687,-84.98519773768136L-34.6296720769144,-86.25334456753856L-32.64248685442643,-82.32627325675098zM-31.93108088536687,-84.98519773768136L-34.6296720769144,-86.25334456753856L-32.64248685442643,-82.32627325675098zM-31.93108088536687,-84.98519773768136L-33.91093271794462,-88.9119366423226L-34.6296720769144,-86.25334456753856zM-31.93108088536687,-84.98519773768136L-33.91093271794462,-88.9119366423226L-34.6296720769144,-86.25334456753856z" style="fill:rgb(245,142,173)"/><path d="M-47.77719491460681,-74.30999553502993L-49.817759840117915,-78.20999316587955L-52.49716555980462,-79.06966487011987zM-47.77719491460681,-74.30999553502993L-49.817759840117915,-78.20999316587955L-52.49716555980462,-79.06966487011987z" style="fill:rgb(50,38,176)"/><path d="M-42.82894200619668,-79.30684118361927L-33.91093271794462,-88.9119366423226L-34.45014985221294,-91.20341146905976zM-42.82894200619668,-79.30684118361927L-33.91093271794462,-88.9119366423226L-34.45014985221294,-91.20341146905976z" style="fill:rgb(83,212,212)"/><path d="M-44.425931327241294,-74.38366742998049L-49.817759840117915,-78.20999316587955L-47.77719491460681,-74.30999553502993zM-44.425931327241294,-74.38366742998049L-49.817759840117915,-78.20999316587955L-47.77719491460681,-74.30999553502993z" style="fill:rgb(86,32,201)"/><path d="M-42.82894200619668,-79.30684118361927L-54.17537235063034,-80.75879341551759L-52.49716555980462,-79.06966487011987zM-42.82894200619668,-79.30684118361927L-54.17537235063034,-80.75879341551759L-52.49716555980462,-79.06966487011987z" style="fill:rgb(83,212,212)"/><path d="M-32.64248685442643,-82.32627325675098L-36.52730037416776,-83.55035645446044L-34.52984707109704,-79.62551386821971zM-32.64248685442643,-82.32627325675098L-36.52730037416776,-83.55035645446044L-34.52984707109704,-79.62551386821971zM-32.64248685442643,-82.32627325675098L-34.6296720769144,-86.25334456753856L-36.52730037416776,-83.55035645446044zM-32.64248685442643,-82.32627325675098L-34.6296720769144,-86.25334456753856L-36.52730037416776,-83.55035645446044z" style="fill:rgb(231,109,199)"/><path d="M-40.807358840875864,-75.39265009380607L-46.45835106072391,-78.29077683475504L-44.425931327241294,-74.38366742998049zM-40.807358840875864,-75.39265009380607L-46.45835106072391,-78.29077683475504L-44.425931327241294,-74.38366742998049z" style="fill:rgb(127,37,217)"/><path d="M-42.82894200619668,-79.30684118361927L-34.6296720769144,-86.25334456753856L-33.91093271794462,-88.9119366423226zM-42.82894200619668,-79.30684118361927L-34.6296720769144,-86.25334456753856L-33.91093271794462,-88.9119366423226z" style="fill:rgb(83,212,212)"/><path d="M-34.52984707109704,-79.62551386821971L-39.37663669790491,-81.1352680249921L-37.367222188632574,-77.21490685045964zM-34.52984707109704,-79.62551386821971L-39.37663669790491,-81.1352680249921L-37.367222188632574,-77.21490685045964z" style="fill:rgb(204,78,216)"/><path d="M-44.425931327241294,-74.38366742998049L-46.45835106072391,-78.29077683475504L-49.817759840117915,-78.20999316587955zM-44.425931327241294,-74.38366742998049L-46.45835106072391,-78.29077683475504L-49.817759840117915,-78.20999316587955z" style="fill:rgb(86,32,201)"/><path d="M-42.82894200619668,-79.30684118361927L-52.49716555980462,-79.06966487011987L-49.817759840117915,-78.20999316587955zM-42.82894200619668,-79.30684118361927L-52.49716555980462,-79.06966487011987L-49.817759840117915,-78.20999316587955z" style="fill:rgb(83,212,212)"/><path d="M-37.367222188632574,-77.21490685045964L-42.82894200619668,-79.30684118361927L-40.807358840875864,-75.39265009380607zM-37.367222188632574,-77.21490685045964L-42.82894200619668,-79.30684118361927L-40.807358840875864,-75.39265009380607z" style="fill:rgb(168,53,222)"/><path d="M-34.52984707109704,-79.62551386821971L-36.52730037416776,-83.55035645446044L-39.37663669790491,-81.1352680249921zM-34.52984707109704,-79.62551386821971L-36.52730037416776,-83.55035645446044L-39.37663669790491,-81.1352680249921z" style="fill:rgb(204,78,216)"/><path d="M-40.807358840875864,-75.39265009380607L-42.82894200619668,-79.30684118361927L-46.45835106072391,-78.29077683475504zM-40.807358840875864,-75.39265009380607L-42.82894200619668,-79.30684118361927L-46.45835106072391,-78.29077683475504z" style="fill:rgb(127,37,217)"/><path d="M-42.82894200619668,-79.30684118361927L-36.52730037416776,-83.55035645446044L-34.6296720769144,-86.25334456753856zM-42.82894200619668,-79.30684118361927L-36.52730037416776,-83.55035645446044L-34.6296720769144,-86.25334456753856z" style="fill:rgb(83,212,212)"/><path d="M-37.367222188632574,-77.21490685045964L-39.37663669790491,-81.1352680249921L-42.82894200619668,-79.30684118361927zM-37.367222188632574,-77.21490685045964L-39.37663669790491,-81.1352680249921L-42.82894200619668,-79.30684118361927z" style="fill:rgb(168,53,222)"/><path d="M-42.82894200619668,-79.30684118361927L-49.817759840117915,-78.20999316587955L-46.45835106072391,-78.29077683475504zM-42.82894200619668,-79.30684118361927L-49.817759840117915,-78.20999316587955L-46.45835106072391,-78.29077683475504zM-42.82894200619668,-79.30684118361927L-39.37663669790491,-81.1352680249921L-36.52730037416776,-83.55035645446044zM-42.82894200619668,-79.30684118361927L-39.37663669790491,-81.1352680249921L-36.52730037416776,-83.55035645446044z" style="fill:rgb(83,212,212)"/></svg>
